<?xml version="1.0" standalone="no"?>
<!DOCTYPE svg PUBLIC "-//W3C//DTD SVG 20010904//EN"
 "http://www.w3.org/TR/2001/REC-SVG-20010904/DTD/svg10.dtd">
<svg version="1.0" xmlns="http://www.w3.org/2000/svg"
 width="1280.000000pt" height="640.000000pt" viewBox="0 0 1280.000000 640.000000"
 preserveAspectRatio="xMidYMid meet">
<g transform="translate(0.000000,640.000000) scale(0.100000,-0.100000)"
fill="#000000" stroke="none">
<path d="M12090 6128 c-74 -51 -63 -7 -156 -653 -26 -181 -51 -340 -55 -352
l-9 -23 -837 0 -838 0 -50 -24 c-145 -67 -243 -278 -270 -581 -6 -64 56 -657
225 -2165 79 -700 142 -1292 155 -1440 29 -345 116 -543 270 -616 l50 -24 781
0 780 0 50 25 c89 44 163 145 208 284 35 107 45 167 57 316 8 113 44 489 144
1515 14 140 34 350 46 465 31 320 150 1505 156 1551 6 49 -29 266 -58 361 -45
146 -128 266 -216 309 -30 15 -65 20 -171 22 -99 3 -135 7 -138 17 -3 7 23
206 57 443 41 283 59 441 55 465 -19 103 -152 162 -236 105z"/>
<path d="M7650 4587 c-53 -28 -90 -90 -90 -151 0 -65 -16 -78 -30 -25 -24 88
-87 139 -173 139 -59 0 -94 -14 -135 -53 -46 -45 -53 -80 -42 -226 65 -854 99
-1335 94 -1342 -3 -5 -18 -9 -34 -9 -36 0 -27 -75 -91 800 -46 635 -52 699
-72 740 -60 123 -252 121 -315 -3 l-24 -46 36 -493 c20 -271 41 -551 47 -623
24 -321 26 -360 22 -367 -2 -5 -13 -8 -23 -8 -25 0 -21 -34 -81 790 -47 652
-52 708 -73 750 -61 123 -253 121 -315 -3 -25 -52 -26 -47 9 -492 24 -306 5
-270 -80 150 -72 356 -76 369 -140 413 -65 44 -194 18 -243 -49 -44 -61 -45
-54 109 -821 79 -397 141 -725 138 -729 -7 -12 -81 -11 -89 1 -3 5 -67 314
-141 685 -74 372 -141 689 -149 704 -18 36 -69 79 -102 87 -42 11 -124 -4
-163 -30 -44 -29 -70 -79 -70 -133 0 -21 56 -319 125 -662 69 -344 126 -636
127 -649 3 -21 -6 -30 -61 -58 -123 -63 -209 -177 -232 -310 -10 -60 -9 -66
211 -962 121 -496 227 -939 235 -984 25 -139 82 -231 187 -298 114 -74 71 -71
1119 -68 l935 3 76 38 c124 61 206 167 230 296 6 31 100 475 210 986 200 929
200 930 189 994 -21 115 -101 231 -198 288 -24 14 -43 28 -43 32 0 4 45 295
99 647 55 351 108 693 117 760 l18 120 -25 50 c-32 66 -82 94 -165 94 -70 0
-115 -24 -146 -77 -20 -33 -24 -56 -88 -462 -62 -393 -71 -363 -46 153 8 172
10 291 5 311 -28 102 -151 153 -255 106 -90 -41 -96 -70 -114 -496 -29 -715
-52 -1161 -60 -1169 -20 -20 -29 7 -25 77 3 40 10 178 15 307 6 129 19 438 31
685 11 248 17 465 14 483 -3 18 -22 51 -42 72 -56 63 -146 78 -223 37z"/>
<path d="M1735 4505 c-476 -44 -839 -158 -1135 -356 -108 -72 -264 -222 -333
-320 -106 -150 -185 -347 -212 -528 -28 -180 -15 -294 33 -320 15 -8 616 -11
2051 -11 l2030 0 27 23 c36 31 45 98 33 234 -18 199 -84 391 -193 558 -79 122
-250 291 -382 378 -292 193 -687 310 -1173 347 -180 13 -573 11 -746 -5z"/>
<path d="M128 2734 c-17 -9 -32 -28 -39 -53 -10 -34 -9 -44 8 -73 12 -22 32
-37 57 -46 31 -10 435 -12 1978 -10 l1940 3 29 33 c40 44 40 93 0 133 l-29 29
-1959 0 c-1705 -1 -1962 -3 -1985 -16z"/>
<path d="M155 2376 c-64 -30 -97 -66 -129 -139 -33 -73 -32 -93 2 -170 34 -73
93 -129 155 -146 31 -9 534 -11 1948 -9 l1906 3 49 30 c130 81 154 270 48 379
-19 20 -49 44 -67 53 -30 17 -144 18 -1947 20 l-1915 3 -50 -24z"/>
<path d="M110 1797 c-60 -20 -73 -60 -66 -202 10 -202 65 -389 165 -559 255
-432 745 -685 1491 -768 179 -20 739 -17 920 5 545 66 953 229 1227 490 227
217 355 478 382 780 12 133 3 200 -33 235 l-26 27 -2013 2 c-1543 2 -2020 -1
-2047 -10z"/>
</g>
</svg>
